{"accessors" : [{"bufferView" : 0, "byteOffset" : 0, "componentType" : 5123, "count" : 78060, "type" : "SCALAR", "max" : [16089], "min" : [0]}, {"bufferView" : 1, "byteOffset" : 0, "componentType" : 5126, "count" : 16090, "type" : "VEC3", "max" : [3.386293888092041, 6.4288411140441895, 1.2315670251846313], "min" : [2.7026619911193848, 1.2933180332183838, 0.8139619827270508], "name" : "POSITION"}, {"bufferView" : 1, "byteOffset" : 12, "componentType" : 5126, "count" : 16090, "type" : "VEC2", "max" : [1, -0], "min" : [0, -1], "name" : "TEXCOORD_0"}, {"bufferView" : 1, "byteOffset" : 20, "componentType" : 5126, "count" : 16090, "type" : "VEC3", "max" : [0.9838517904281616, 1.0000044107437134, 1.0000044107437134], "min" : [-0.9834305047988892, -1.0000044107437134, -0.9840894937515259], "name" : "NORMAL"}], "asset" : {"generator" : "Aspose.3D 21.4", "version" : "2.0"}, "buffers" : [{"uri" : "buffer.bin", "byteLength" : 2654048}], "bufferViews" : [{"buffer" : 0, "byteOffset" : 0, "byteLength" : 156120, "target" : 34963}, {"buffer" : 0, "byteOffset" : 156124, "byteLength" : 2497920, "byteStride" : 32, "target" : 34962}], "meshes" : [{"primitives" : [{"attributes" : {"POSITION" : 1, "TEXCOORD_0" : 2, "NORMAL" : 3}, "indices" : 0, "mode" : 4}]}], "nodes" : [{"mesh" : 0, "name" : "uma_árvore"}], "scene" : 0, "scenes" : [{"nodes" : [0]}]}